<?xml version="1.0" encoding="UTF-8" standalone="no"?>
<!-- Created with Inkscape (http://www.inkscape.org/) -->

<svg
   version="1.1"
   id="svg1"
   width="1800"
   height="600"
   viewBox="0 0 1800 600"
   sodipodi:docname="malet_white.svg"
   inkscape:version="1.4.2 (ebf0e940, 2025-05-08)"
   inkscape:export-filename="malet.pdf"
   inkscape:export-xdpi="96"
   inkscape:export-ydpi="96"
   xmlns:inkscape="http://www.inkscape.org/namespaces/inkscape"
   xmlns:sodipodi="http://sodipodi.sourceforge.net/DTD/sodipodi-0.dtd"
   xmlns="http://www.w3.org/2000/svg"
   xmlns:svg="http://www.w3.org/2000/svg">
  <defs
     id="defs1" />
  <sodipodi:namedview
     id="namedview1"
     pagecolor="#ffffff"
     bordercolor="#000000"
     borderopacity="0.25"
     inkscape:showpageshadow="2"
     inkscape:pageopacity="0.0"
     inkscape:pagecheckerboard="0"
     inkscape:deskcolor="#d1d1d1"
     inkscape:zoom="0.46395385"
     inkscape:cx="874.00934"
     inkscape:cy="470.95201"
     inkscape:window-width="1904"
     inkscape:window-height="1186"
     inkscape:window-x="418"
     inkscape:window-y="421"
     inkscape:window-maximized="0"
     inkscape:current-layer="g1" />
  <g
     inkscape:groupmode="layer"
     inkscape:label="Image"
     id="g1">
    <path
       style="display:inline;fill:#ffffff;stroke:none;stroke-width:0"
       d="m 771,548.6709 c -36.8252,-4.5804 -60.0374,-14.3995 -80.6944,-34.1351 -23.503,-22.4547 -33.7681,-50.8446 -30.6498,-84.7674 3.1555,-34.3261 22.3006,-60.8004 56.5739,-78.2315 14.8515,-7.5533 26.0377,-11.4902 41.5399,-14.6198 43.0458,-8.6899 90.6425,-4.3369 131.1424,11.9939 1.8442,0.7437 1.8888,0.2966 1.2635,-12.6482 -0.7733,-16.0045 -2.4109,-23.4257 -7.6239,-34.5502 -9.5144,-20.303 -29.2624,-34.4547 -55.0516,-39.4508 -8.655,-1.6767 -33.6375,-1.6818 -43,-0.01 -22.1783,3.9633 -46.364,18.0823 -57.4581,33.5425 -3.7225,5.1876 -4.0795,5.4287 -6,4.0517 -2.1978,-1.576 -7.7518,-5.0687 -33.7743,-21.2397 -9.2028,-5.7188 -16.9387,-10.7316 -17.1908,-11.1395 -0.5066,-0.8198 9.1432,-13.5863 14.5081,-19.1939 13.8054,-14.43 38.4488,-29.7303 58.4151,-36.2681 20.5001,-6.7127 40.8797,-9.6403 67.1988,-9.6536 52.2203,-0.026 91.3456,14.3747 119.8333,44.108 16.4593,17.1789 26.8819,40.0987 30.9275,68.0116 1.3117,9.0502 1.5404,26.574 1.5404,118.0185 v 107.3904 l -34.25,-0.375 c -18.8375,-0.2062 -34.3513,-0.4658 -34.4751,-0.5769 -0.1239,-0.1111 -0.5327,-9.0863 -0.9087,-19.9448 l -0.6837,-19.7428 -4.5634,5.3013 c -21.7065,25.2162 -46.2257,38.4554 -80.1491,43.2766 -9.4806,1.3475 -28.8488,1.7997 -36.47,0.8518 z m 46.5,-56.7416 c 23.3694,-4.1897 45.3374,-17.8624 57.902,-36.0378 10.175,-14.7187 14.4503,-26.8755 15.6973,-44.6347 l 0.6731,-9.587 -3.8862,-1.5469 c -4.7627,-1.8959 -26.412,-8.093 -35.7124,-10.2226 -27.3718,-6.2678 -59.8414,-5.4268 -81.0234,2.0986 -9.8961,3.5159 -15.118,6.7078 -22.4388,13.7158 -11.3835,10.8972 -15.8044,22.1797 -14.9404,38.129 0.5767,10.6454 2.899,17.1818 9.2828,26.1279 5.4267,7.6048 10.0381,11.3272 19.7406,15.9349 14.2462,6.7655 36.7461,9.2426 54.7054,6.0228 z m 493.5002,56.4619 c -86.8825,-8.6484 -146.9677,-67.5962 -155.4131,-152.4711 -4.4306,-44.528 6.1732,-90.1738 28.6993,-123.5398 7.9368,-11.7563 21.33,-26.1655 32.7138,-35.1957 29.1551,-23.1275 65.0806,-34.8139 107,-34.8069 30.16,0.01 53.0742,4.8411 76,16.0399 14.9788,7.3168 16.1932,8.0437 26,15.561 14.4878,11.1055 28.5359,27.1371 37.4513,42.7395 17.4131,30.4732 24.6287,60.9135 23.8517,100.6256 l -0.3032,15.5 -130.25,0.2538 c -71.6377,0.1395 -130.25,0.3654 -130.25,0.502 0,2.0437 4.2697,21.5346 5.5298,25.2442 6.7473,19.8592 18.3926,35.6657 35.9702,48.8225 29.203,21.8586 76.1348,25.92 109,9.4325 14.4503,-7.2493 28.7264,-19.5272 36.9408,-31.7704 2.5773,-3.8415 5.0732,-6.9846 5.5461,-6.9846 0.4729,0 8.6569,3.7418 18.1866,8.315 9.5297,4.5733 22.839,10.946 29.5767,14.1616 6.7375,3.2156 12.25,6.3687 12.25,7.0069 0,0.6383 -2.2975,4.503 -5.1057,8.5885 -26.6396,38.7577 -61.895,61.4891 -107.8943,69.567 -15.8668,2.7864 -40.8236,3.8694 -55.5,2.4085 z m 103.4882,-208.7975 c -0.01,-0.9625 -1.0949,-6.1009 -2.4186,-11.4187 -8.3478,-33.5365 -34.6585,-59.0861 -67.3982,-65.4485 -10.8906,-2.1164 -33.6271,-2.0347 -43.1331,0.155 -27.5273,6.341 -52.4378,26.7662 -63.6992,52.2296 -2.7199,6.1504 -7.3393,21.4727 -7.3393,24.3445 0,1.8372 2.4836,1.8881 92,1.8881 86.9567,0 91.9992,-0.096 91.9884,-1.75 z m 233.5118,205.1669 c -14.446,-1.9843 -19.0998,-2.8775 -26.464,-5.0802 -15.6635,-4.6848 -34.6617,-16.145 -42.9841,-25.9293 -13.1928,-15.5102 -21.4207,-34.5962 -24.1039,-55.9127 -1.4127,-11.224 -0.7274,-92.9873 0.9723,-115.9947 1.632,-22.0902 4.1611,-70.2414 4.7535,-90.5 0.5947,-20.3397 -0.4065,-27.592 -5.0839,-36.8223 -4.5854,-9.0492 -15.8614,-16.1777 -25.5899,-16.1777 -9.2383,0 -24.7067,9.7111 -26.4346,16.5957 -0.566,2.2548 -0.9671,2.4229 -4.3445,1.8209 -6.7896,-1.2101 -32.6751,-7.469 -35.4911,-8.5816 -3.0374,-1.1999 -7.4414,-5.9462 -8.777,-9.459 -1.4516,-3.8182 -1.3968,-113.6635 0.058,-116.4787 1.7927,-3.4688 5.0846,-6.8769 8.2159,-8.506 2.9056,-1.5117 18.5407,-5.4652 30.5381,-7.7219 l 7.265,-1.3665 3.5116,4.8879 c 13.9733,19.4499 40.6317,17.946 52.9987,-2.9898 1.0215,-1.7291 3.1849,-3.6067 4.8077,-4.1724 4.4405,-1.548 52.4953,-1.3313 55.622,0.2508 1.3585,0.6874 3.5118,2.8182 4.7851,4.7352 8.5133,12.8171 19.7381,17.8932 33.3282,15.0719 8.1079,-1.6831 15.6161,-7.4263 21.4167,-16.3819 0.8893,-1.3731 2.4939,-1.2375 14.5,1.2253 24.2469,4.9739 29.5635,7.388 32.6759,14.837 1.8568,4.4437 2.0607,113.9381 0.219,117.5118 -1.6718,3.2439 -5.0278,6.7203 -7.9614,8.2472 -2.0232,1.053 -21.4026,5.8268 -36.6027,9.0165 -1.6401,0.3442 -2.6821,-0.3746 -4.2718,-2.9469 -12.8536,-20.7975 -42.7998,-20.1624 -52.3464,1.1102 -4.3115,9.6073 -5.1186,17.5449 -3.8552,37.9175 2.5553,41.207 6.1005,95.3649 6.6689,101.8768 0.336,3.85 1.0031,24.55 1.4824,46 0.943,42.2024 1.4489,46.5418 6.7192,57.6355 4.5627,9.6043 9.4548,14.6155 18.2431,18.687 6.9745,3.2312 8.4128,3.5215 19.529,3.9411 11.9082,0.4496 16.5905,-0.096 27.8525,-3.2436 4.636,-1.2958 13.9531,-5.1046 17.7177,-7.2429 0.7131,-0.405 3.3407,41.9212 3.3919,54.6377 l 0.038,9.4147 -7.7265,2.8099 c -13.9259,5.0645 -25.5437,6.9709 -44.7735,7.3471 -9.625,0.1883 -18.85,0.157 -20.5,-0.07 z M 570.7865,539.5817 535.573,539.3182 535.1931,439.581 C 534.7995,336.2354 534.4986,328.1867 530.4819,313.5455 521.99152,282.5978 498.20459,264.4678 466,264.3984 c -41.39837,-0.089 -71.51678,25.8429 -81.81765,70.4453 -2.01531,8.7263 -2.08898,11.9732 -2.42196,106.75 l -0.34342,97.75 h -36.38885 -36.38884 l -0.3946,-104.25 c -0.43475,-114.8548 -0.29966,-112.2701 -6.78748,-129.866 -9.85664,-26.7327 -34.08916,-41.6784 -65.31672,-40.285 -13.19479,0.5887 -25.30069,3.6767 -32.64048,8.3259 -1.375,0.871 -4.1696,2.4304 -6.21022,3.4654 -5.47118,2.775 -18.29324,14.9883 -22.97837,21.8875 -5.24544,7.7242 -12.22212,22.6594 -14.2617,30.5304 -4.28466,16.535 -4.51223,22.4833 -4.53139,118.4418 l -0.0183,91.75 h -36.5 -36.5 l -2.3e-4,-163.75 -2.2e-4,-163.75 33.65094,0.2341 c 18.50802,0.1287 33.7503,0.3537 33.87174,0.5 0.12143,0.1463 0.47142,10.0963 0.77774,22.1111 0.30633,12.0148 0.74964,22.0378 0.98514,22.2733 0.2355,0.2355 2.80059,-2.6924 5.7002,-6.5065 9.90231,-13.0253 26.40361,-26.2672 42.51469,-34.117 21.66238,-10.5547 42.92084,-14.8348 67.90677,-13.6721 12.00638,0.5587 30.23457,3.4691 35.09323,5.6033 1.1,0.4832 4.925,1.9187 8.5,3.19 10.99817,3.9112 17.10134,7.5013 28,16.4704 9.35637,7.6999 14.86365,13.8703 20.67405,23.1634 2.49313,3.9875 4.84008,7.25 5.21546,7.25 0.37537,0 2.13777,-1.9125 3.91644,-4.25 10.62379,-13.9616 28.58166,-28.5123 45.82942,-37.134 41.63329,-20.8116 101.95262,-19.0563 137.67383,4.0063 33.51128,21.6359 49.99688,52.7896 54.70438,103.3777 1.4095,15.1474 0.9323,215.2959 -0.5136,215.4175 -0.55,0.046 -16.8461,-0.035 -36.2135,-0.1795 z m 490.326,0 -31.8879,-0.2643 0.3878,-234.4853 0.3877,-234.4855 36.2522,-3e-4 36.252,-3e-4 -0.252,234.6012 -0.2521,234.6013 -4.5,0.1487 c -2.475,0.082 -18.8495,0.03 -36.3877,-0.1155 z"
       id="path1" />
  </g>
</svg>
